<?xml version="1.0" encoding="UTF-8" standalone="no"?>
<!-- Created with Inkscape (http://www.inkscape.org/) -->

<svg
   xmlns:dc="http://purl.org/dc/elements/1.1/"
   xmlns:cc="http://creativecommons.org/ns#"
   xmlns:rdf="http://www.w3.org/1999/02/22-rdf-syntax-ns#"
   xmlns:svg="http://www.w3.org/2000/svg"
   xmlns="http://www.w3.org/2000/svg"
   xmlns:sodipodi="http://sodipodi.sourceforge.net/DTD/sodipodi-0.dtd"
   xmlns:inkscape="http://www.inkscape.org/namespaces/inkscape"
   version="1.1"
   id="svg10"
   width="320"
   height="150"
   viewBox="0 0 320 150"
   sodipodi:docname="logo.svg"
   inkscape:version="0.92.4 (5da689c313, 2019-01-14)">
  <metadata
     id="metadata16">
    <rdf:RDF>
      <cc:Work
         rdf:about="">
        <dc:format>image/svg+xml</dc:format>
        <dc:type
           rdf:resource="http://purl.org/dc/dcmitype/StillImage" />
        <dc:title></dc:title>
      </cc:Work>
    </rdf:RDF>
  </metadata>
  <defs
     id="defs14" />
  <sodipodi:namedview
     pagecolor="#ffffff"
     bordercolor="#666666"
     borderopacity="1"
     objecttolerance="10"
     gridtolerance="10"
     guidetolerance="10"
     inkscape:pageopacity="0"
     inkscape:pageshadow="2"
     inkscape:window-width="1920"
     inkscape:window-height="1137"
     id="namedview12"
     showgrid="true"
     showguides="false"
     inkscape:zoom="3.0469811"
     inkscape:cx="273.63727"
     inkscape:cy="60.135516"
     inkscape:window-x="-2"
     inkscape:window-y="-1"
     inkscape:window-maximized="1"
     inkscape:current-layer="g4462" />
  <g
     id="g4462"
     transform="translate(-23.918043,101.72669)">
    <path
       style="fill:#ebfcdd;stroke-width:1.16944587"
       d="m 45.248,5.9432149 c 2.80094,0 5.045666,-4.181785 6.966974,-12.979059 1.840431,-8.4269249 4.970715,-13.9181979 7.93404,-13.9181979 0.730788,0 0.45342,-0.941137 -0.63028,-2.138613 -2.264445,-2.502183 -2.446276,-7.058681 -0.621268,-15.568404 1.231734,-5.743371 1.150413,-6.26027 -1.296689,-8.241812 -1.949302,-1.578449 -2.424798,-2.855403 -1.876596,-5.039618 0.85874,-3.421495 3.792697,-3.799896 8.916943,-1.150047 4.368798,2.259194 5.373593,6.27783 3.652789,14.609142 -1.953479,9.457814 -1.755364,12.965845 0.769532,13.626118 3.399316,0.888943 1.957155,6.682371 -2.038918,8.190723 -2.856565,1.078232 -3.506478,2.382775 -5.739447,11.5205479 C 59.90012,0.52154691 57.842831,6.1971709 56.713336,7.4664879 49.701579,13.354086 37.576054,14.771264 45.248,5.9432149 Z"
       id="path4476"
       inkscape:connector-curvature="0"
       sodipodi:nodetypes="csssssssscsscc" />
    <path
       style="fill:#b4d698;stroke-width:1.16944587"
       d="m 31.29022,3.8364109 c -4.106557,-2.251933 -4.643267,-5.07549 -2.615659,-13.760637 1.603839,-6.8699649 1.575229,-7.4014889 -0.488474,-9.0748789 -2.568334,-2.082575 -2.072588,-4.395545 1.55344,-7.24778 1.723321,-1.355563 3.28595,-4.827133 4.616253,-10.255548 2.201365,-8.982857 6.451797,-14.048382 11.787869,-14.048382 3.826622,0 3.787072,3.868059 -0.05745,5.619743 -1.676214,0.763736 -3.193548,2.68567 -3.610412,4.573136 -2.291095,10.373564 -4.284993,15.592721 -6.386662,16.717501 -2.152709,1.152098 -2.186509,1.433752 -0.483881,4.03229 1.578029,2.408379 1.633019,3.797374 0.398723,10.0711889 -1.293174,6.573072 -1.234014,7.422115 0.611156,8.77133801 2.367755,1.731343 2.035582,5.60905999 -0.514907,6.01087199 -0.957407,0.150822 -3.121898,-0.483146 -4.809982,-1.408843 z"
       id="path4468"
       inkscape:connector-curvature="0"
       sodipodi:nodetypes="csssssssscscccc" />
    <path
       style="fill:#8dbab5;stroke-width:1.16944587"
       d="M 92.965207,0.27375591 C 91.123359,-1.5680991 91.072254,-15.201413 92.894419,-18.606193 c 0.751683,-1.40453 5.025813,-7.421816 9.498051,-13.371745 6.26301,-8.332365 8.77039,-10.818054 10.91249,-10.818054 1.97331,0 2.78114,0.659318 2.78114,2.269876 0,1.24843 -0.50202,2.580131 -1.11558,2.959334 -0.61356,0.379204 -4.42888,5.275488 -8.47848,10.880628 -7.180842,9.939168 -7.377362,10.407919 -7.947642,18.9566669 -0.600867,9.00768 -2.233211,11.349225 -5.579205,8.00324301 z m 36.535603,-0.05167 c -0.33449,-0.871698 -0.46371,-10.77581191 -0.28714,-22.00913091 l 0.32106,-20.424224 h 2.92361 c 2.82851,0 2.93464,0.285309 3.26256,8.770845 l 0.33895,8.770845 16.37136,11.557397 c 9.00424,6.3565669 16.17863,12.14532091 15.94311,12.86390891 -0.23553,0.718577 -1.73341,1.46323299 -3.32861,1.65478799 -2.06679,0.248178 -6.4818,-2.18869799 -15.3609,-8.47848 -6.85326,-4.8547239 -12.7204,-8.8267689 -13.03806,-8.8267689 -0.31769,0 -0.73223,3.815317 -0.92121,8.4784829 -0.31549,7.78528301 -0.55914,8.509086 -2.98007,8.85287 -1.45006,0.205896 -2.91017,-0.338846 -3.24467,-1.21054099 z m 62.2588,0.69058 c -0.45593,-0.455934 -0.82896,-7.80179001 -0.82896,-16.32412791 0,-16.066514 0.33972,-17.149078 5.00219,-15.939677 1.88431,0.48877 2.04828,2.028616 1.75418,16.474271 -0.30593,15.02687591 -0.46047,15.9545749 -2.71143,16.2767939 -1.31286,0.187916 -2.76005,-0.03143 -3.21598,-0.48725999 z m 31.54068,-1.376697 c -1.60972,-1.77871801 -1.96405,-4.70532601 -1.96405,-16.22261791 0,-18.347478 -0.43387,-17.923218 18.32961,-17.923218 17.20506,0 17.92321,0.476732 17.92321,11.897655 0,10.465197 -1.27618,11.491265 -14.29267,11.491265 -8.17065,0 -10.14992,-0.350432 -10.74546,-1.902393 -1.38886,-3.619282 1.52806,-5.114283 9.97853,-5.114283 h 8.04293 v -4.677788 -4.677784 h -11.10973 -11.10974 v 11.073743 11.0737399 l 14.32572,0.328359 14.3257,0.328358 v 2.923615 2.923615 l -15.87,0.324009 c -14.21839,0.290279 -16.07441,0.09813 -17.83405,-1.84625199 z m 47.85926,0.307601 c -1.51928,-1.51930101 -1.876,-4.62374501 -1.876,-16.32702291 0,-18.62361 -0.26715,-18.318026 15.61823,-17.873604 11.78648,0.329747 11.86373,0.350943 11.86373,3.255529 0,2.883576 -0.14801,2.92822 -10.81737,3.25986 l -10.81737,0.336252 v 11.023496 11.0235049 l 11.40209,0.334718 c 11.29334,0.3315 11.4021,0.362601 11.4021,3.258321 0,2.914726 -0.038,2.92462 -12.4497,3.254297 -10.17462,0.270289 -12.7925,-0.01206 -14.32571,-1.54532699 z m 38.15317,0.430169 c -1.51271,-1.51268101 -2.15303,-39.84434691 -0.72765,-43.55881391 0.39041,-1.017389 1.98031,-1.849805 3.53308,-1.849805 h 2.82322 l -0.31721,23.081373 c -0.26861,19.5591589 -0.58852,23.1335119 -2.09561,23.4230449 -0.97817,0.187915 -2.42536,-0.305189 -3.21597,-1.09578199 z m 27.40886,0.589562 c -0.42879,-0.428766 -0.77963,-6.98285801 -0.77963,-14.56461691 V -27.48633 l -7.89375,-0.34579 c -7.5482,-0.330661 -7.89377,-0.473794 -7.89377,-3.269413 0,-2.829021 0.28396,-2.934501 8.7794,-3.260061 13.14651,-0.503797 13.35307,-0.237361 13.82899,17.837603 0.27154,10.3164149 -0.0365,15.2830329 -1.02027,16.46895791 -1.49492,1.80122799 -3.7294,2.20993399 -5.02097,0.918354 z M 81.264805,-31.079178 c -6.80489,-9.093254 -7.542996,-11.716814 -3.29639,-11.716814 4.039164,0 15.668964,15.584449 13.542158,18.147093 -2.443626,2.944394 -3.926937,2.013464 -10.245768,-6.430279 z m 60.841475,6.219819 c -3.05403,-1.232326 -1.16799,-3.838341 7.79732,-10.773839 8.83364,-6.833621 14.12091,-8.846019 15.85782,-6.03565 0.73009,1.181313 -18.99454,17.560759 -21.02389,17.458352 -0.64319,-0.03252 -1.82726,-0.324448 -2.63125,-0.648863 z m 32.62943,-11.955082 c -0.86729,-0.549618 -1.38681,-1.988748 -1.15448,-3.19807 0.3909,-2.034802 1.91544,-2.222575 20.44489,-2.518153 17.71133,-0.28253 20.10793,-0.09669 20.76285,1.610032 1.69949,4.428765 -1.11313,5.142112 -20.20081,5.123408 -10.05157,-0.0098 -18.98518,-0.467596 -19.85245,-1.017217 z"
       id="path4466"
       inkscape:connector-curvature="0" />
  </g>
</svg>
